<svg width="186.67" height="71.289" viewBox="0 0 186.67 71.289" xmlns="http://www.w3.org/2000/svg">
    <g id="svgGroup" stroke-linecap="round" fill-rule="evenodd" font-size="9pt" stroke="#000" stroke-width="0.25mm"
       fill="none" style="stroke:#000;stroke-width:0.25mm;fill:black">
        <path d="M 83.301 30.469 L 109.033 0 L 117.822 7.324 L 94.092 35.449 L 122.705 71.289 L 105.518 71.289 L 83.301 41.26 L 83.301 71.289 L 69.678 71.289 L 69.678 1.074 L 83.301 1.074 L 83.301 30.469 Z M 147.266 30.469 L 172.998 0 L 181.787 7.324 L 158.057 35.449 L 186.67 71.289 L 169.482 71.289 L 147.266 41.26 L 147.266 71.289 L 133.643 71.289 L 133.643 1.074 L 147.266 1.074 L 147.266 30.469 Z M 0 1.074 L 19.043 1.074 Q 24.805 1.074 29.688 1.685 A 43.166 43.166 0 0 1 35.486 2.8 A 36.213 36.213 0 0 1 38.672 3.809 Q 43.506 5.615 46.777 8.618 A 22.914 22.914 0 0 1 52.002 15.723 A 31.901 31.901 0 0 1 54.12 21.686 A 39.069 39.069 0 0 1 54.785 24.927 A 63.669 63.669 0 0 1 55.497 31.617 A 78.839 78.839 0 0 1 55.615 35.986 A 73.159 73.159 0 0 1 55.298 42.938 A 59.622 59.622 0 0 1 54.761 47.07 A 36.485 36.485 0 0 1 53.293 52.947 A 30.31 30.31 0 0 1 51.904 56.323 A 24.323 24.323 0 0 1 46.655 63.501 A 23.1 23.1 0 0 1 41.487 67.132 A 28.708 28.708 0 0 1 38.672 68.408 A 38.194 38.194 0 0 1 32.663 70.13 A 45.689 45.689 0 0 1 29.688 70.63 A 71.998 71.998 0 0 1 23.916 71.163 A 91.055 91.055 0 0 1 19.043 71.289 L 0 71.289 L 0 1.074 Z M 13.672 61.377 L 15.625 61.377 A 90.988 90.988 0 0 0 20.812 61.238 Q 25.427 60.974 28.76 60.205 Q 33.258 59.167 36.032 56.788 A 12.226 12.226 0 0 0 36.719 56.152 A 13.713 13.713 0 0 0 39.6 51.83 A 18.89 18.89 0 0 0 40.674 48.462 A 38.947 38.947 0 0 0 41.328 44.501 Q 41.564 42.479 41.668 40.146 A 86.478 86.478 0 0 0 41.748 36.328 A 84.591 84.591 0 0 0 41.607 31.279 Q 41.469 28.991 41.199 27.012 A 38.674 38.674 0 0 0 40.698 24.121 A 20.521 20.521 0 0 0 39.575 20.48 Q 38.685 18.361 37.353 16.775 A 12.439 12.439 0 0 0 36.963 16.333 Q 34.277 13.428 29.688 12.207 A 31.699 31.699 0 0 0 25.902 11.463 Q 22.461 10.986 18.066 10.986 L 13.672 10.986 L 13.672 61.377 Z"/>
    </g>
</svg>